<svg id="Layer_1" data-name="Layer 1" xmlns="http://www.w3.org/2000/svg" viewBox="0 0 300 300"><defs><style>.cls-1{fill:#ffcb00;}.cls-1,.cls-3,.cls-4,.cls-5{fill-rule:evenodd;}.cls-2{fill:#e4007d;}.cls-3{fill:#fff;}.cls-5{fill:#000003;}</style></defs><title>50 лет</title><path class="cls-1" d="M7.68,4.11c0-.09,0-0.17,0-0.26a3.85,3.85,0,1,1,7.69,0,3.85,3.85,0,1,0,7.69,0,3.85,3.85,0,1,1,7.69,0,3.85,3.85,0,0,0,7.69,0,3.85,3.85,0,1,1,7.69,0,3.85,3.85,0,0,0,7.69,0,3.85,3.85,0,0,1,7.69,0,3.85,3.85,0,1,0,7.69,0,3.85,3.85,0,1,1,7.69,0,3.85,3.85,0,0,0,7.69,0,3.85,3.85,0,0,1,7.69,0,3.85,3.85,0,1,0,7.69,0,3.85,3.85,0,0,1,7.69,0,3.85,3.85,0,0,0,7.69,0,3.85,3.85,0,1,1,7.69,0,3.85,3.85,0,0,0,7.69,0,3.85,3.85,0,1,1,7.69,0,3.85,3.85,0,1,0,7.69,0A3.85,3.85,0,0,1,150,0h0a3.85,3.85,0,0,1,3.85,3.85,3.85,3.85,0,1,0,7.69,0,3.85,3.85,0,0,1,7.69,0,3.85,3.85,0,0,0,7.69,0,3.85,3.85,0,1,1,7.69,0,3.85,3.85,0,0,0,7.69,0,3.85,3.85,0,1,1,7.69,0,3.85,3.85,0,1,0,7.69,0,3.85,3.85,0,0,1,7.69,0,3.85,3.85,0,1,0,7.69,0,3.85,3.85,0,0,1,7.69,0,3.85,3.85,0,1,0,7.69,0,3.85,3.85,0,0,1,7.69,0,3.85,3.85,0,0,0,7.69,0,3.85,3.85,0,0,1,7.69,0,3.85,3.85,0,0,0,7.69,0,3.85,3.85,0,1,1,7.69,0,3.85,3.85,0,0,0,7.69,0,3.85,3.85,0,0,1,7.69,0q0,0.13,0,.26a3.85,3.85,0,0,0,3.84,3.56,3.85,3.85,0,1,1,0,7.69,3.85,3.85,0,0,0,0,7.69,3.85,3.85,0,1,1,0,7.69,3.85,3.85,0,1,0,0,7.69,3.85,3.85,0,1,1,0,7.69,3.85,3.85,0,1,0,0,7.69,3.85,3.85,0,1,1,0,7.69,3.85,3.85,0,1,0,0,7.69,3.85,3.85,0,0,1,0,7.69,3.85,3.85,0,1,0,0,7.69,3.85,3.85,0,1,1,0,7.69,3.85,3.85,0,1,0,0,7.69,3.85,3.85,0,1,1,0,7.69,3.85,3.85,0,1,0,0,7.69,3.85,3.85,0,0,1,0,7.69,3.85,3.85,0,0,0,0,7.69,3.85,3.85,0,1,1,0,7.69,3.85,3.85,0,0,0,0,7.69,3.82,3.82,0,1,1,0,7.65,3.85,3.85,0,1,0,0,7.69,3.85,3.85,0,1,1,0,7.69,3.85,3.85,0,1,0,0,7.69,3.85,3.85,0,1,1,0,7.69,3.85,3.85,0,1,0,0,7.69,3.85,3.85,0,1,1,0,7.69,3.85,3.85,0,0,0,0,7.69,3.85,3.85,0,1,1,0,7.69,3.85,3.85,0,1,0,0,7.69,3.85,3.85,0,0,1,0,7.69,3.85,3.85,0,1,0,0,7.69,3.85,3.85,0,0,1,0,7.69,3.85,3.85,0,0,0,0,7.69,3.85,3.85,0,1,1,0,7.69,3.85,3.85,0,1,0,0,7.69,3.85,3.85,0,0,1,0,7.69,3.85,3.85,0,1,0,0,7.69,3.85,3.85,0,1,1,0,7.69,3.85,3.85,0,0,0-3.84,3.56c0,0.09,0,.17,0,0.26a3.85,3.85,0,0,1-7.69,0,3.85,3.85,0,1,0-7.69,0,3.85,3.85,0,1,1-7.69,0,3.85,3.85,0,0,0-7.69,0,3.85,3.85,0,0,1-7.69,0,3.85,3.85,0,0,0-7.69,0,3.85,3.85,0,1,1-7.69,0,3.85,3.85,0,1,0-7.69,0,3.85,3.85,0,1,1-7.69,0,3.85,3.85,0,1,0-7.69,0,3.85,3.85,0,0,1-7.69,0,3.85,3.85,0,1,0-7.69,0,3.85,3.85,0,0,1-7.69,0,3.85,3.85,0,1,0-7.69,0,3.85,3.85,0,0,1-7.69,0,3.85,3.85,0,1,0-7.69,0,3.85,3.85,0,0,1-7.69,0,3.85,3.85,0,0,0-7.69,0,3.85,3.85,0,0,1-3.85,3.85h0a3.85,3.85,0,0,1-3.85-3.85,3.85,3.85,0,1,0-7.69,0,3.85,3.85,0,1,1-7.69,0,3.85,3.85,0,0,0-7.69,0,3.85,3.85,0,1,1-7.69,0,3.85,3.85,0,0,0-7.69,0,3.85,3.85,0,0,1-7.69,0,3.85,3.85,0,1,0-7.69,0,3.85,3.85,0,1,1-7.69,0,3.85,3.85,0,1,0-7.69,0,3.85,3.85,0,1,1-7.69,0,3.85,3.85,0,0,0-7.69,0,3.85,3.85,0,0,1-7.69,0,3.85,3.85,0,1,0-7.69,0,3.85,3.85,0,1,1-7.69,0,3.85,3.85,0,0,0-7.69,0,3.85,3.85,0,1,1-7.69,0,3.85,3.85,0,0,0-7.69,0,3.85,3.85,0,0,1-7.69,0q0-.13,0-0.26a3.85,3.85,0,0,0-3.84-3.56,3.85,3.85,0,1,1,0-7.69,3.85,3.85,0,0,0,0-7.69,3.85,3.85,0,0,1,0-7.69,3.85,3.85,0,0,0,0-7.69,3.85,3.85,0,0,1,0-7.69,3.85,3.85,0,1,0,0-7.69,3.85,3.85,0,1,1,0-7.69,3.85,3.85,0,1,0,0-7.69,3.85,3.85,0,0,1,0-7.69,3.85,3.85,0,1,0,0-7.69,3.85,3.85,0,0,1,0-7.69,3.85,3.85,0,1,0,0-7.69,3.85,3.85,0,0,1,0-7.69,3.85,3.85,0,1,0,0-7.69,3.85,3.85,0,0,1,0-7.69,3.85,3.85,0,0,0,0-7.69,3.85,3.85,0,1,1,0-7.69,3.85,3.85,0,0,0,0-7.69,3.82,3.82,0,1,1,0-7.65,3.85,3.85,0,1,0,0-7.69,3.85,3.85,0,1,1,0-7.69,3.85,3.85,0,0,0,0-7.69,3.85,3.85,0,0,1,0-7.69,3.85,3.85,0,1,0,0-7.69,3.85,3.85,0,0,1,0-7.69,3.85,3.85,0,0,0,0-7.69,3.85,3.85,0,1,1,0-7.69,3.85,3.85,0,0,0,0-7.69,3.85,3.85,0,0,1,0-7.69,3.85,3.85,0,0,0,0-7.69,3.85,3.85,0,1,1,0-7.69,3.85,3.85,0,1,0,0-7.69,3.85,3.85,0,1,1,0-7.69,3.85,3.85,0,0,0,0-7.69,3.85,3.85,0,0,1,0-7.69,3.85,3.85,0,1,0,0-7.69,3.85,3.85,0,0,1,0-7.69A3.85,3.85,0,0,0,7.68,4.11Z"/><rect class="cls-2" x="18.82" y="18.77" width="262.46" height="262.46"/><path class="cls-3" d="M63.61,235.12H72.9v-27.5h47.18v36.25H111v-27.5H82v21l-6.54,6.54H63.61v-8.75h0Zm107.32,8.74h-36l-6.73-6.73V207.62h42.77v8.75H138v5h33v8.75H138v5h33v8.75h0Zm55.53,0v-27.5h-15v27.5h-9.1v-27.5h-15v27.5h-9.1V207.62h50.28l6.92,6.92v29.33h-9.1Z"/><path class="cls-4" d="M207.14,195.73a1.31,1.31,0,0,1-1.26-1.23l-0.68-2.14a1.5,1.5,0,0,0-1.26-1.17l-1,0a1.38,1.38,0,0,0-1.28,1l-0.91,2.17a1.31,1.31,0,0,1-1.31.88l-0.9-.11a1.31,1.31,0,0,1-1.09-1.38l-0.39-2.21a1.5,1.5,0,0,0-1.09-1.32l-1-.18a1.38,1.38,0,0,0-1.4.84l-1.18,2a1.31,1.31,0,0,1-1.41.7l-0.88-.23a1.31,1.31,0,0,1-.9-1.51l-0.1-2.24a1.5,1.5,0,0,0-.91-1.45l-1-.31a1.38,1.38,0,0,0-1.5.64l-1.44,1.87a1.31,1.31,0,0,1-1.49.51l-0.85-.34a1.31,1.31,0,0,1-.69-1.61l0.19-2.23a1.5,1.5,0,0,0-.72-1.56l-0.92-.43a1.38,1.38,0,0,0-1.57.44l-1.67,1.66a1.31,1.31,0,0,1-1.54.31l-0.79-.45a1.31,1.31,0,0,1-.47-1.69l0.48-2.19a1.5,1.5,0,0,0-.51-1.64l-0.85-.54a1.38,1.38,0,0,0-1.61.23l-1.87,1.43a1.31,1.31,0,0,1-1.57.11l-0.73-.55a1.31,1.31,0,0,1-.25-1.74l0.76-2.11a1.5,1.5,0,0,0-.29-1.69l-0.77-.65a1.38,1.38,0,0,0-1.63,0l-2,1.17a1.3,1.3,0,0,1-1.57-.1l-0.65-.64a1.31,1.31,0,0,1,0-1.76l1-2a1.5,1.5,0,0,0-.06-1.71l-0.68-.75a1.38,1.38,0,0,0-1.62-.19l-2.18.9a1.31,1.31,0,0,1-1.54-.31l-0.56-.72a1.31,1.31,0,0,1,.21-1.74l1.28-1.84a1.5,1.5,0,0,0,.16-1.71l-0.58-.83a1.38,1.38,0,0,0-1.58-.4l-2.28.6a1.31,1.31,0,0,1-1.49-.5l-0.46-.78a1.31,1.31,0,0,1,.43-1.7l1.51-1.66a1.5,1.5,0,0,0,.38-1.67l-0.47-.9a1.38,1.38,0,0,0-1.51-.6l-2.34.3a1.31,1.31,0,0,1-1.41-.69l-0.36-.84a1.31,1.31,0,0,1,.65-1.63l1.72-1.44a1.5,1.5,0,0,0,.6-1.61l-0.34-1a1.38,1.38,0,0,0-1.42-.8h-2.36a1.31,1.31,0,0,1-1.31-.87l-0.25-.88a1.31,1.31,0,0,1,.86-1.53l1.89-1.21a1.5,1.5,0,0,0,.8-1.52l-0.22-1a1.38,1.38,0,0,0-1.31-1l-2.34-.31a1.31,1.31,0,0,1-1.18-1l-0.13-.9a1.31,1.31,0,0,1,1.05-1.41l2-1a1.5,1.5,0,0,0,1-1.4l-0.09-1A1.38,1.38,0,0,0,145,132l-2.27-.62a1.31,1.31,0,0,1-1-1.18v-0.91a1.31,1.31,0,0,1,1.23-1.26l2.14-.68a1.5,1.5,0,0,0,1.17-1.26l0-1a1.38,1.38,0,0,0-1-1.28l-2.17-.91a1.31,1.31,0,0,1-.88-1.31l0.11-.9a1.31,1.31,0,0,1,1.38-1.09l2.21-.39a1.5,1.5,0,0,0,1.32-1.09l0.18-1a1.38,1.38,0,0,0-.83-1.4l-2-1.18a1.31,1.31,0,0,1-.7-1.41l0.23-.88a1.31,1.31,0,0,1,1.51-.9l2.24-.1a1.5,1.5,0,0,0,1.45-.91l0.31-1a1.38,1.38,0,0,0-.64-1.5l-1.86-1.44a1.31,1.31,0,0,1-.51-1.49l0.34-.85a1.31,1.31,0,0,1,1.61-.69l2.23,0.19a1.5,1.5,0,0,0,1.56-.72l0.43-.92a1.38,1.38,0,0,0-.44-1.57l-1.66-1.67a1.31,1.31,0,0,1-.31-1.54l0.45-.79a1.31,1.31,0,0,1,1.69-.47l2.19,0.48a1.5,1.5,0,0,0,1.64-.51l0.55-.85a1.38,1.38,0,0,0-.24-1.61l-1.43-1.87a1.31,1.31,0,0,1-.1-1.57l0.55-.73a1.31,1.31,0,0,1,1.74-.25l2.11,0.76a1.5,1.5,0,0,0,1.69-.29l0.65-.77a1.38,1.38,0,0,0,0-1.63l-1.17-2a1.31,1.31,0,0,1,.1-1.57l0.64-.65a1.31,1.31,0,0,1,1.76,0l2,1a1.5,1.5,0,0,0,1.71-.06l0.75-.68a1.38,1.38,0,0,0,.19-1.62l-0.89-2.18a1.31,1.31,0,0,1,.3-1.54l0.72-.56a1.31,1.31,0,0,1,1.74.21l1.84,1.28a1.5,1.5,0,0,0,1.71.16L174,78.3a1.38,1.38,0,0,0,.4-1.58l-0.6-2.28a1.31,1.31,0,0,1,.5-1.49l0.78-.46a1.31,1.31,0,0,1,1.7.43l1.66,1.51a1.5,1.5,0,0,0,1.67.38l0.9-.47a1.38,1.38,0,0,0,.6-1.51l-0.3-2.34a1.31,1.31,0,0,1,.69-1.41l0.84-.36a1.31,1.31,0,0,1,1.63.65l1.44,1.72a1.5,1.5,0,0,0,1.61.6l1-.34a1.38,1.38,0,0,0,.8-1.42V67.58a1.31,1.31,0,0,1,.87-1.31L191,66a1.31,1.31,0,0,1,1.53.86l1.21,1.89a1.5,1.5,0,0,0,1.52.8l1-.22a1.38,1.38,0,0,0,1-1.31l0.31-2.34a1.31,1.31,0,0,1,1-1.18l0.9-.13a1.31,1.31,0,0,1,1.41,1.05l1,2a1.5,1.5,0,0,0,1.4,1l1-.09a1.38,1.38,0,0,0,1.14-1.17L206,65a1.31,1.31,0,0,1,1.18-1H208a1.31,1.31,0,0,1,1.18,1l0.62,2.27A1.38,1.38,0,0,0,211,68.39l1,0.09a1.5,1.5,0,0,0,1.4-1l1-2a1.31,1.31,0,0,1,1.41-1.05l0.9,0.13a1.31,1.31,0,0,1,1,1.18L218,68.05a1.38,1.38,0,0,0,1,1.31l1,0.22a1.5,1.5,0,0,0,1.52-.8l1.21-1.89A1.31,1.31,0,0,1,224.2,66l0.88,0.25a1.31,1.31,0,0,1,.87,1.31v2.36a1.38,1.38,0,0,0,.79,1.42l1,0.34a1.5,1.5,0,0,0,1.61-.6l1.44-1.72a1.31,1.31,0,0,1,1.63-.65l0.84,0.36a1.31,1.31,0,0,1,.69,1.41l-0.3,2.34a1.38,1.38,0,0,0,.6,1.51l0.9,0.47a1.5,1.5,0,0,0,1.67-.38l1.66-1.51a1.31,1.31,0,0,1,1.7-.43L240.93,73a1.31,1.31,0,0,1,.5,1.49l-0.6,2.28a1.38,1.38,0,0,0,.4,1.58l0.83,0.58a1.5,1.5,0,0,0,1.71-.16l1.84-1.28a1.31,1.31,0,0,1,1.74-.21l0.72,0.56a1.31,1.31,0,0,1,.3,1.54l-0.89,2.18a1.38,1.38,0,0,0,.19,1.62l0.75,0.68a1.5,1.5,0,0,0,1.71.06l2-1a1.31,1.31,0,0,1,1.76,0l0.64,0.65a1.31,1.31,0,0,1,.1,1.57l-1.17,2a1.38,1.38,0,0,0,0,1.63l0.65,0.77a1.5,1.5,0,0,0,1.69.29l2.11-.76a1.31,1.31,0,0,1,1.74.25L260.15,90A1.31,1.31,0,0,1,260,91.6l-1.43,1.87a1.38,1.38,0,0,0-.24,1.61l0.55,0.85a1.5,1.5,0,0,0,1.64.51l2.19-.48a1.31,1.31,0,0,1,1.69.47l0.45,0.79a1.31,1.31,0,0,1-.31,1.54l-1.66,1.67a1.38,1.38,0,0,0-.44,1.57l0.43,0.92a1.5,1.5,0,0,0,1.56.72l2.23-.19a1.31,1.31,0,0,1,1.61.69l0.34,0.85a1.31,1.31,0,0,1-.51,1.49l-1.86,1.44a1.38,1.38,0,0,0-.64,1.5l0.31,1a1.5,1.5,0,0,0,1.45.91l2.24,0.1a1.31,1.31,0,0,1,1.51.9l0.23,0.88a1.31,1.31,0,0,1-.7,1.41l-2,1.18a1.38,1.38,0,0,0-.83,1.4l0.18,1a1.5,1.5,0,0,0,1.32,1.09l2.21,0.39a1.31,1.31,0,0,1,1.38,1.09l0.11,0.9a1.31,1.31,0,0,1-.88,1.31l-2.17.91a1.38,1.38,0,0,0-1,1.28l0,1a1.5,1.5,0,0,0,1.17,1.26l2.14,0.68a1.31,1.31,0,0,1,1.23,1.26v0.91a1.3,1.3,0,0,1-1,1.18l-2.27.62a1.38,1.38,0,0,0-1.17,1.14l-0.09,1a1.5,1.5,0,0,0,1,1.4l2,1a1.31,1.31,0,0,1,1.05,1.41l-0.13.9a1.31,1.31,0,0,1-1.18,1l-2.34.31a1.38,1.38,0,0,0-1.31,1l-0.22,1a1.5,1.5,0,0,0,.8,1.52l1.89,1.21a1.31,1.31,0,0,1,.86,1.53l-0.25.88a1.31,1.31,0,0,1-1.31.87h-2.36a1.38,1.38,0,0,0-1.42.8l-0.34,1a1.5,1.5,0,0,0,.6,1.61L268,153a1.31,1.31,0,0,1,.65,1.63l-0.36.84a1.31,1.31,0,0,1-1.41.69l-2.34-.3a1.38,1.38,0,0,0-1.51.6l-0.46.9A1.5,1.5,0,0,0,263,159l1.51,1.66a1.31,1.31,0,0,1,.43,1.7l-0.46.78a1.31,1.31,0,0,1-1.49.5l-2.28-.6a1.38,1.38,0,0,0-1.58.4l-0.58.83a1.5,1.5,0,0,0,.16,1.71l1.28,1.84a1.31,1.31,0,0,1,.21,1.74l-0.56.72a1.31,1.31,0,0,1-1.54.31l-2.18-.9a1.38,1.38,0,0,0-1.62.19l-0.68.75a1.5,1.5,0,0,0-.06,1.71l1,2a1.31,1.31,0,0,1,0,1.76l-0.65.64a1.31,1.31,0,0,1-1.57.1l-2-1.17a1.38,1.38,0,0,0-1.63,0l-0.77.65a1.5,1.5,0,0,0-.29,1.69l0.76,2.11a1.31,1.31,0,0,1-.25,1.74l-0.73.55a1.31,1.31,0,0,1-1.57-.11l-1.87-1.43a1.38,1.38,0,0,0-1.61-.23l-0.85.54a1.5,1.5,0,0,0-.51,1.64l0.48,2.19a1.31,1.31,0,0,1-.48,1.69l-0.79.45a1.31,1.31,0,0,1-1.54-.31L237,185.13a1.38,1.38,0,0,0-1.57-.44l-0.92.43a1.5,1.5,0,0,0-.71,1.56l0.19,2.23a1.31,1.31,0,0,1-.69,1.61l-0.84.34a1.31,1.31,0,0,1-1.49-.51l-1.44-1.87a1.38,1.38,0,0,0-1.5-.64l-1,.31a1.5,1.5,0,0,0-.91,1.45l-0.1,2.24a1.31,1.31,0,0,1-.9,1.51l-0.88.23a1.31,1.31,0,0,1-1.41-.7l-1.18-2a1.38,1.38,0,0,0-1.4-.83l-1,.18a1.5,1.5,0,0,0-1.09,1.32l-0.39,2.21a1.31,1.31,0,0,1-1.08,1.38l-0.9.11a1.31,1.31,0,0,1-1.31-.88l-0.91-2.17a1.38,1.38,0,0,0-1.28-1l-1,0a1.5,1.5,0,0,0-1.26,1.17l-0.68,2.14a1.31,1.31,0,0,1-1.26,1.23h-1Zm17-69.85,25.1,17.59,0.05,0a1.37,1.37,0,0,0,.48.23,1.83,1.83,0,0,0,.8.05,0.87,0.87,0,0,0,.53-0.28,0.94,0.94,0,0,0,.17-0.35,56,56,0,0,0,1.45-6.54,44,44,0,0,0,.54-6.81A45.81,45.81,0,0,0,217.06,85.1l-0.21,0a1.13,1.13,0,0,0-.61.16h0a1,1,0,0,0-.39.63,2.16,2.16,0,0,0,0,.44v27.82a2.35,2.35,0,0,0,.16.78,5.1,5.1,0,0,0,.44.89,16.71,16.71,0,0,1,4.43,4.1,16.54,16.54,0,0,1,2.67,5.37l0.3,0.29a3.89,3.89,0,0,0,.37.3h0ZM166,143.47L191,125.88a3.9,3.9,0,0,0,.37-0.3l0.3-.29a16.52,16.52,0,0,1,2.67-5.37,16.7,16.7,0,0,1,4.43-4.1,5.11,5.11,0,0,0,.44-0.89,2.36,2.36,0,0,0,.16-0.78V86.33a2.15,2.15,0,0,0,0-.44,1,1,0,0,0-.39-0.63h0a1.13,1.13,0,0,0-.61-0.16l-0.21,0a45.81,45.81,0,0,0-36.24,44.71,44,44,0,0,0,.54,6.81,55.84,55.84,0,0,0,1.45,6.54,0.94,0.94,0,0,0,.17.35,0.86,0.86,0,0,0,.53.28h0a1.84,1.84,0,0,0,.8-0.05,1.36,1.36,0,0,0,.48-0.23l0.05,0h0Zm33.46,29.7V145a1.29,1.29,0,0,0-.15-0.68,1.85,1.85,0,0,0-.6-0.54q-0.66-.42-1.28-0.92c-0.42-.33-0.82-0.68-1.2-1a0.79,0.79,0,0,0-.54-0.25,1.61,1.61,0,0,0-.85.32l-21.88,14.62h0l-0.12.1a1.71,1.71,0,0,0-.62,1.26,1.89,1.89,0,0,0,.28,1.13h0l0,0a46.16,46.16,0,0,0,11.18,9.72,45.42,45.42,0,0,0,13.62,5.62,2,2,0,0,0,.43,0,2.44,2.44,0,0,0,1.11-.25,1,1,0,0,0,.56-0.67,1.24,1.24,0,0,0,0-.28h0Zm16.4-28.2v28.2a1.23,1.23,0,0,0,0,.28h0a1,1,0,0,0,.56.67,2.43,2.43,0,0,0,1.1.25,2,2,0,0,0,.43,0,45.41,45.41,0,0,0,13.62-5.62A46.14,46.14,0,0,0,242.74,159l0,0h0a1.89,1.89,0,0,0,.28-1.13,1.71,1.71,0,0,0-.62-1.26l-0.13-.1h0l-21.87-14.61a1.62,1.62,0,0,0-.86-0.31h0a0.76,0.76,0,0,0-.54.23c-0.37.36-.77,0.7-1.19,1h0q-0.61.48-1.28,0.92a1.86,1.86,0,0,0-.59.54,1.31,1.31,0,0,0-.16.7h0Zm-8.2-11.2a3.94,3.94,0,1,0-3.94-3.94A4,4,0,0,0,207.61,133.77Z"/><path class="cls-5" d="M127.32,76.41c2.05,0.25,1.85.2,3.88-.44,1.42-.41,1.2-0.57,2.12-1.37s1.93,0,3.11-1a2.27,2.27,0,0,1,.88-0.53c0.81-.26,1.23.18,2.41-0.64a6.09,6.09,0,0,1,2.88-.89,10,10,0,0,1,2.21-.53l0.9,0.14a3,3,0,0,0,1.13-.16c0.36-.12.71-0.19,1-0.31a26.34,26.34,0,0,0,3.5-1.14,2.73,2.73,0,0,1,1.6-.41c0.34,0,.69.08,1.06,0.13l0.33,0.07a4.55,4.55,0,0,0,2.52-.16c1.29-.39,9.64-2,10.63-2.26,1.44-.32,2.05.06,2.75-0.24a5.16,5.16,0,0,1,1.42-.6c0.69-.11,1.52-0.09,1.84-0.16l1.53-.53c0.2-.09.52-0.16,0.78-0.24a5,5,0,0,1,2.64-.34,9.34,9.34,0,0,0,1.82-.19,8.78,8.78,0,0,0,1.81-.17,2,2,0,0,1,.44-0.06,3.84,3.84,0,0,1,1,0c0.21,0,.31,0,0.52,0a4.87,4.87,0,0,0,1.84-.13l0.88-.11c0.31,0,.57-0.12.86-0.17,1-.18,1.36.19,2.82-0.13a2,2,0,0,1,.44-0.06,9.84,9.84,0,0,1,2,.16,1.19,1.19,0,0,0,.18,0,12.5,12.5,0,0,0,2.25.19,1,1,0,0,0,.48-0.13,5.41,5.41,0,0,0,1.41-1.12c0.58-.54.28-1.42,1.17-1.37a2.54,2.54,0,0,0,1.15-.08c0.45-.14,1.51-0.39,1.58-0.88,0-.24-0.34-0.37-0.55-0.4a4.55,4.55,0,0,1-.6-0.07c-0.62-.16-0.7-0.66-0.1-0.95a1.49,1.49,0,0,0,.76-0.54,2.12,2.12,0,0,1,.47-0.85,8.1,8.1,0,0,1,1.13-.11,2.28,2.28,0,0,0,.55-0.76c0.45-.52,1.28-0.53,1.4-1.29a3,3,0,0,0-.83-1.61c-0.46-.77-0.32-1.5-0.79-2.24l-0.25-.39c-0.16-.18-0.46-0.61-0.56-0.76a2.8,2.8,0,0,0-.67-1.21,2,2,0,0,1-.78-1.11,4,4,0,0,0-.25-0.94,4.18,4.18,0,0,0-.5-0.75A4,4,0,0,0,198,45.46c-0.87-.33-1.54-1-2.31-1.19a1.16,1.16,0,0,0-.29-0.09,3.69,3.69,0,0,0-1.09-.1,16.62,16.62,0,0,0-2.26.66l-1.39.24A7.7,7.7,0,0,1,189,45a9,9,0,0,0-1.41.19c-0.56.07-1.13-.05-1.66,0a11.91,11.91,0,0,0-1.45.21c-0.53,0-1,0-1.52.09a6.25,6.25,0,0,1-1.44.16,5.35,5.35,0,0,0-.78,0,6.51,6.51,0,0,1-.7.14,14.58,14.58,0,0,1-1.52.09,14.21,14.21,0,0,1-1.48.21,6.11,6.11,0,0,0-1.47.12,12.48,12.48,0,0,0-1.4.27,6.5,6.5,0,0,1-1.32.36c-0.25,0-.52,0-0.77,0a4.3,4.3,0,0,0-1.39.24c-0.23.11-.37,0.2-0.57,0.29a3.14,3.14,0,0,1-1.5.15,4.28,4.28,0,0,0-1.15.49,4.62,4.62,0,0,1-1.44.18c-1.16.16-2.15,0.76-3.35,0.78l-0.81,0c-1.1.11-1.2,0.76-2.65,0.64s-9.7,1.82-11,2.15c-0.45.11-.91,0.14-1.42,0.24s-0.89.17-1.39,0.24a7.12,7.12,0,0,0-1.31.34,3.86,3.86,0,0,0-.62.23c-0.2.09-.37,0.2-0.57,0.29a5.63,5.63,0,0,1-1.37.3,7,7,0,0,0-1.28.34c-0.45.11-.84,0.26-1.29,0.39-0.84.26-1.84,0.52-2.52,0.79-0.39.14-.73,0.35-1.13,0.52a23.44,23.44,0,0,0-2.48.91c-1.21.62-1,.78-2.53,0.82-4.47.06-5.29,3.32-7,5.09-2.41,2.4-4.54,4.23-1.19,10.55a5.89,5.89,0,0,0,1.46,1.47,6.33,6.33,0,0,0,1.16,1l0.6,0.29a6.7,6.7,0,0,1,.66.3,4.57,4.57,0,0,0,1.43.48h0ZM88.53,175.06a40.36,40.36,0,0,0,19.25-11c5.91-6.35,8.84-14.94,7.83-22.18-0.07-1-.33-1.84-0.32-2.83,0-1.54-.26-1.43-0.77-2.48-0.37-.82-0.37-1.6-0.77-2.42a15.61,15.61,0,0,1-1-2.16,11.93,11.93,0,0,0-.71-2.48c-1.08-2.1-1.27-1.55-2.25-2.6s-4.34,0-5-.66-1.78-2-3.2-1.47a7.13,7.13,0,0,1-2.65.66,2,2,0,0,0-1.25.49,2.63,2.63,0,0,1-1.24.4c-1.7.28-.94,0.78-1.79,1.59a2.63,2.63,0,0,1-1.08.61,7.83,7.83,0,0,0-1,.67c-1,.61-1.81.11-2.65,0.66A23.25,23.25,0,0,0,88,131.41a5.71,5.71,0,0,1-1,.7,21.6,21.6,0,0,0-3.29,2.55c-0.15.14-.27,0.29-0.43,0.44-0.91.75-1.67,0.31-2.65,0.66-1.75.66-1.21,0.32-2.85,0.45-3.45.28-3.08,1.09-6.3-1.16s-1.61-2-2.76-3.71a5.13,5.13,0,0,1-1.17-2,4,4,0,0,0-.41-1.23c-0.59-1.23.23-2.53,0.55-4.08a4.63,4.63,0,0,1,1-2.36c0.62-.84.3-1.57,1.06-2.36,0.95-1,.82-1.54,1.31-2,0.7-.73,1.65-0.34,2.26-1.1,0.19-.26.44-0.78,0.63-1.08,1.09-1.71.77-2.27,1.94-3.14a11.58,11.58,0,0,1,1-.7,18.85,18.85,0,0,0,2-1.33c0.33-.23.69-0.41,1-0.64a13.05,13.05,0,0,0,1.43-2,7.55,7.55,0,0,1,.88-0.78,8.39,8.39,0,0,0,.77-0.93c0.67-.73,1.17-0.72,1.68-1.68s0.41-1.48,1.15-2.27a4.81,4.81,0,0,0,.8-0.87c4.29-7.15,9.93-16.57,14.48-23.47a6.57,6.57,0,0,1,1.45-1.92,22.23,22.23,0,0,1,2-1.36c0.72-.49.77-1.07,1.76-1.62a7.17,7.17,0,0,0,1-.64c2.34-1.68.81-2.9,2.53-3.54s1.35-.14,2.78-0.22c1.23-.08,1.45.27,2.51,0.65A3,3,0,0,1,117,70.12c0.27,0.38.5,0.68,0.69,0.92L119,74.66c-0.62,1.62-.47,1.67-0.18,3.72a4.79,4.79,0,0,1,0,2.8c-0.3.84-.68,1.6-1,2.47a5.13,5.13,0,0,1-1.14,2.21C115.8,87,114.91,88.79,114,90c-1.14,1.39-2.13,2.15-2.93,3.83a5,5,0,0,1-1.56,1.83c-0.46.46-1.45,2.51-1.89,3.18-1.75,2.82-8.16,12.2-8.1,12.2,8.82-1.77,20-1.46,26.86,4.46,4.84,4.16,10.39,12.66,9.22,19.51-0.2,1.22.24,1.81,0.28,3a23.15,23.15,0,0,1-.28,3.18c-0.58,4.31-.07,7.91-1.52,12.77-2.16,7.26-6.84,15.68-11.19,20.15a23.2,23.2,0,0,1-1.82,1.52,6.8,6.8,0,0,0-1.49,2,7.46,7.46,0,0,1-.81.87,6.27,6.27,0,0,1-.86.84,11.7,11.7,0,0,1-1,.62,3.49,3.49,0,0,0-.86.84,2.66,2.66,0,0,1-.94.74A9.91,9.91,0,0,1,114,182c-2.39,1.13-2.19,2.14-4.24,2.35a3.17,3.17,0,0,0-2.16,1.14,18.15,18.15,0,0,1-2.18,1.08,63.8,63.8,0,0,1-23.85,6,84.11,84.11,0,0,1-33.62-5c-6.54-2.39-15.67-6.83-21.49-12a15.31,15.31,0,0,1-2.43-2.76,4.89,4.89,0,0,1-1-2.16c-0.19-.83-0.75-1.58-0.43-2.55a7.38,7.38,0,0,0,.6-2.85c0-1.52-.18-1.45.76-2.48s0.58-1.47,1.15-2.33c0.46-.69,1.31-0.89,1.93-1.43,0.95-.83-1.18,1-0.42-0.21a4,4,0,0,1,1.92-1.4c1-.42,1.46-0.91,2.13-1.18,0.43-.17.84-0.17,1.24-0.34,3.65,0.67,7.14,1.09,8.2,3.31C44.45,167.94,68.59,179.35,88.53,175.06Z"/></svg>